<?xml version="1.0" encoding="utf-8"?>
<!-- Generator: Adobe Illustrator 23.0.1, SVG Export Plug-In . SVG Version: 6.00 Build 0)  -->
<svg version="1.1" id="Layer_1" xmlns="http://www.w3.org/2000/svg" xmlns:xlink="http://www.w3.org/1999/xlink" x="0px" y="0px"
	 viewBox="0 0 95 95" style="enable-background:new 0 0 95 95;" xml:space="preserve">
<style type="text/css">
	.st0{fill:#4285F4;}
	.st1{fill:#FFFFFF;}
</style>
<circle class="st0" cx="47.5" cy="47.5" r="44.4"/>
<path class="st1" d="M73.8,47.5c0,2.9,0,5.8,0,8.8c0,0.3,0,0.6-0.1,0.9c-0.3,0.8-1.3,1.2-2.1,0.7c-3.9-2-7.7-3.9-11.6-5.9
	c-0.6-0.3-0.9-0.8-0.9-1.5c0-2,0-4.1,0-6.1c0-0.7,0.3-1.2,0.9-1.5c3.8-1.9,7.6-3.9,11.4-5.8c1.3-0.6,2.4,0,2.4,1.5
	C73.8,41.6,73.8,44.5,73.8,47.5z"/>
<path class="st1" d="M51.3,63.2h-20c-3.6,0-6.4-2.9-6.4-6.4V38.3c0-3.6,2.9-6.4,6.4-6.4h20c3.6,0,6.4,2.9,6.4,6.4v18.5
	C57.7,60.4,54.8,63.2,51.3,63.2z"/>
</svg>
