<?xml version="1.0" encoding="utf-8"?>
<!-- Generator: Adobe Illustrator 23.0.1, SVG Export Plug-In . SVG Version: 6.00 Build 0)  -->
<svg version="1.1" id="Layer_1" xmlns="http://www.w3.org/2000/svg" xmlns:xlink="http://www.w3.org/1999/xlink" x="0px" y="0px"
	 viewBox="0 0 56.2 52.6" style="enable-background:new 0 0 56.2 52.6;" xml:space="preserve">
<style type="text/css">
	.st0{fill:#FFFFFF;}
</style>
<path d="M16.2,26.2c3.6,0,6.4,2.5,6.8,5.9c0.2,1.7-0.3,3.2-1.1,4.6c-1.1,2-2.6,3.8-4.1,5.6c-0.3,0.3-0.5,0.6-0.8,0.9
	c-0.4,0.5-1,0.5-1.4,0c-1.8-2.1-3.5-4.1-4.9-6.5c-0.7-1.3-1.2-2.7-1.1-4.2c0.1-3,2.5-5.8,5.5-6.2C15.6,26.3,16,26.3,16.2,26.2z
	 M19.6,32.9c0-1.8-1.4-3.3-3.2-3.3c-1.8,0-3.3,1.5-3.3,3.3c0,1.8,1.4,3.2,3.2,3.2C18.2,36.2,19.6,34.7,19.6,32.9z"/>
<path class="st0" d="M28.8,44.3c3.1,0,6.1,0,9.2,0c2.8,0,5.1-1,6.9-3.1c1.8-2.1,2.5-4.6,2-7.3c-0.8-4.3-4.5-7.2-8.9-7.2
	c-3.2,0-6.4,0-9.7,0c-0.9,0-1.7-0.4-2.3-1.2c-0.6-0.8-0.6-1.8-0.2-2.7c0.5-0.9,1.2-1.4,2.3-1.4c2,0,4,0,6,0c0.1,0,0.2-0.1,0.4-0.1
	c0-0.1-0.1-0.2-0.1-0.3c-0.5-0.7-1.1-1.4-1.6-2c-0.1-0.1-0.3-0.2-0.5-0.3c-0.8,0-1.5,0-2.3,0c-0.9,0-1.8,0-2.7,0.1
	c-3.5,0.5-5.5,4.5-3.9,7.6c1.1,2.1,2.8,3,5.1,3c3.2,0,6.4,0,9.6,0c0.5,0,0.9,0,1.4,0.1c3.1,0.7,5.1,3.6,4.7,6.8
	c-0.3,2.5-2.4,4.7-4.9,5.1c-0.9,0.1-1.9,0.1-2.8,0.1c-5.2,0-10.3,0-15.5,0c-0.2,0-0.5,0-0.6,0.2c-0.6,0.7-1.2,1.5-1.8,2.2
	c-0.2,0.2-0.1,0.3,0.2,0.4c0.1,0,0.2,0,0.4,0C22.3,44.3,25.6,44.3,28.8,44.3z"/>
<path d="M28.8,44.3c-3.2,0-6.4,0-9.7,0c-0.1,0-0.2,0-0.4,0c-0.2,0-0.3-0.2-0.2-0.4c0.6-0.7,1.2-1.5,1.8-2.2c0.1-0.1,0.4-0.2,0.6-0.2
	c5.2,0,10.3,0,15.5,0c0.9,0,1.9,0,2.8-0.1c2.5-0.4,4.6-2.6,4.9-5.1c0.4-3.2-1.5-6-4.7-6.8c-0.5-0.1-0.9-0.1-1.4-0.1
	c-3.2,0-6.4,0-9.6,0c-2.3,0-4.1-1-5.1-3c-1.6-3.1,0.4-7.1,3.9-7.6c0.9-0.1,1.8-0.1,2.7-0.1c0.8,0,1.5,0,2.3,0c0.2,0,0.4,0.1,0.5,0.3
	c0.6,0.7,1.1,1.3,1.6,2c0.1,0.1,0.1,0.2,0.1,0.3c-0.1,0-0.2,0.1-0.4,0.1c-2,0-4,0-6,0c-1,0-1.8,0.5-2.3,1.4
	c-0.5,0.9-0.4,1.8,0.2,2.7c0.5,0.8,1.3,1.2,2.3,1.2c3.2,0,6.4,0,9.7,0c4.3,0,8,3,8.9,7.2c0.5,2.7-0.1,5.2-2,7.3
	c-1.8,2.1-4.2,3.1-6.9,3.1C34.9,44.3,31.8,44.3,28.8,44.3z"/>
<path d="M40.9,13.5c0.1,1.2-0.4,2.3-1.1,3.2c-0.9,1.3-2,2.6-3,3.9c-0.3,0.4-0.7,0.4-1,0c-1.2-1.4-2.4-2.8-3.3-4.5
	c-0.8-1.5-1.1-3.1-0.3-4.7c0.9-1.8,2.9-2.8,4.9-2.5c1.9,0.3,3.5,2,3.7,4C40.9,13.2,40.9,13.4,40.9,13.5z M36.3,15.9
	c1.2,0,2.2-1,2.2-2.2c0-1.2-1-2.3-2.3-2.3c-1.2,0-2.2,1-2.2,2.2C34.1,14.9,35.1,15.9,36.3,15.9z"/>
</svg>
