<?xml version="1.0" encoding="utf-8"?>
<!-- Generator: Adobe Illustrator 23.0.1, SVG Export Plug-In . SVG Version: 6.00 Build 0)  -->
<svg version="1.1" id="Layer_1" xmlns="http://www.w3.org/2000/svg" xmlns:xlink="http://www.w3.org/1999/xlink" x="0px" y="0px"
	 viewBox="0 0 53 52.6" style="enable-background:new 0 0 53 52.6;" xml:space="preserve">
<path d="M26.5,44.3c-9.9,0-18-8-18-18c0-9.9,8-18,18-18s18,8,18,18S36.4,44.3,26.5,44.3z M26.5,12c-7.9,0-14.3,6.4-14.3,14.3
	s6.4,14.3,14.3,14.3s14.3-6.4,14.3-14.3S34.4,12,26.5,12z"/>
<path d="M26.3,28.7c-0.9,0-1.7-0.8-1.7-1.7V16.4c0-0.9,0.8-1.7,1.7-1.7s1.7,0.8,1.7,1.7V27C28,27.9,27.2,28.7,26.3,28.7z"/>
<path d="M31.6,33.5c-0.4,0-0.8-0.2-1.1-0.4l-5.2-4.8c-0.7-0.7-0.7-1.7-0.1-2.4c0.7-0.7,1.7-0.7,2.3-0.1l5.2,4.8
	c0.7,0.7,0.7,1.7,0.1,2.3C32.5,33.2,32,33.5,31.6,33.5z"/>
</svg>
