<?xml version="1.0" encoding="utf-8"?>
<!-- Generator: Adobe Illustrator 23.0.1, SVG Export Plug-In . SVG Version: 6.00 Build 0)  -->
<svg version="1.1" id="Layer_1" xmlns="http://www.w3.org/2000/svg" xmlns:xlink="http://www.w3.org/1999/xlink" x="0px" y="0px"
	 viewBox="0 0 1062.4 1058.7" style="enable-background:new 0 0 1062.4 1058.7;" xml:space="preserve">
<style type="text/css">
	.st0{opacity:0.3;fill:#4285F4;enable-background:new    ;}
	.st1{fill:#FFFFFF;}
	.st2{fill:#4285F4;}
	.st3{opacity:0.79;fill:none;stroke:url(#SVGID_1_);stroke-width:30;stroke-miterlimit:10;enable-background:new    ;}
	.st4{opacity:0.61;fill:#FFFFFF;enable-background:new    ;}
</style>
<g>
	<circle class="st0" cx="531.2" cy="529.3" r="467.5"/>
	<circle class="st1" cx="531.2" cy="529.3" r="76.6"/>
	<title>billboard</title>
	<path d="M966.1,735.1c-0.6,0.2-1.3,0.3-1.9,0.2c-0.2,0-0.2-0.4-0.4-0.6c0.6-0.2,1.3-0.3,1.9-0.2C965.8,734.8,965.9,735,966.1,735.1
		z"/>
	<circle class="st2" cx="531.2" cy="529.3" r="62.3"/>
	
		<linearGradient id="SVGID_1_" gradientUnits="userSpaceOnUse" x1="48.7" y1="767.8398" x2="1013.7" y2="767.8398" gradientTransform="matrix(1 0 0 -1 0 1055.8898)">
		<stop  offset="0" style="stop-color:#FFFFFF;stop-opacity:0"/>
		<stop  offset="0.1884" style="stop-color:#FFFFFF"/>
		<stop  offset="0.5" style="stop-color:#FFFFFF"/>
		<stop  offset="0.8317" style="stop-color:#FFFFFF"/>
		<stop  offset="1" style="stop-color:#FFFFFF;stop-opacity:0"/>
	</linearGradient>
	<path class="st3" d="M63.7,529.3C63.7,271.1,273,61.8,531.2,61.8s467.5,209.3,467.5,467.5"/>
	<path class="st4" d="M531.2,395.3c34.8,0,66.3,14.3,88.9,37.3L802.7,250c-69.3-69.7-165.4-112.9-271.5-112.9S329.1,180.2,259.7,250
		l182.6,182.6C464.9,409.6,496.4,395.3,531.2,395.3z"/>
</g>
</svg>
