<?xml version="1.0" encoding="utf-8"?>
<!-- Generator: Adobe Illustrator 23.0.2, SVG Export Plug-In . SVG Version: 6.00 Build 0)  -->
<svg version="1.1" id="Layer_1" xmlns="http://www.w3.org/2000/svg" xmlns:xlink="http://www.w3.org/1999/xlink" x="0px" y="0px"
	 viewBox="0 0 506.7 506.7" style="enable-background:new 0 0 506.7 506.7;" xml:space="preserve">
<style type="text/css">
	.st0{fill:#1A1B21;}
	.st1{opacity:0.6;fill:#FFFFFF;}
</style>
<title>icon_linked</title>
<path class="st0" d="M0,253.4C-0.1,113.5,113.2,0.1,253.2,0s253.1,112.8,253.5,253.1c0.4,139.9-113.4,253.8-253.5,253.6
	C113.4,506.8,0,393.4,0,253.6C0,253.5,0,253.5,0,253.4z"/>
<path class="st1" d="M213,366.5v-6.6c0-22.6-0.1-45.3,0-67.9c0.1-12.6,7.8-20.2,20.4-20.3c12.2-0.1,24.3,0,36.5,0
	c14.8,0,22.1,7.2,22.1,22c0,22.3,0,44.6,0,66.8v6.1c15.9,0,31,0,46.1,0c15,0,18.7-3.7,18.7-18.4c0-29.1,0-58.2,0-87.3v-7
	c6.3,0,11.9-0.1,17.6,0c4.7,0.1,8.9-0.6,10.9-5.6c2-4.8-0.5-8-3.6-11.2c-40.4-40.3-80.8-80.7-121.1-121.1c-5.9-5.9-10.1-5.9-16,0
	c-39.9,39.8-79.7,79.7-119.6,119.5c-3.3,3.3-5.4,6.7-3.5,11.3c1.9,4.6,5.9,5.6,10.5,5.5c5.3-0.1,10.5,0,16.3,0v7.5
	c0,29.6,0,59.3,0,88.9c-0.1,2,0,4.1,0.2,6.1c0.7,6.5,5.5,11.6,11.9,11.7C177.6,366.7,194.9,366.5,213,366.5z"/>
</svg>
