<?xml version="1.0" encoding="utf-8"?>
<!-- Generator: Adobe Illustrator 23.0.2, SVG Export Plug-In . SVG Version: 6.00 Build 0)  -->
<svg version="1.1" id="Layer_1" xmlns="http://www.w3.org/2000/svg" xmlns:xlink="http://www.w3.org/1999/xlink" x="0px" y="0px"
	 viewBox="0 0 836 506.7" style="enable-background:new 0 0 836 506.7;" xml:space="preserve">
<style type="text/css">
	.st0{fill:#1A1B21;}
	.st1{fill:#FFFFFF;enable-background:new    ;}
	.st2{fill:#FFFFFF;stroke:#FFFFFF;stroke-width:14;stroke-miterlimit:10;}
</style>
<path class="st0" d="M326.6,253.4C326.5,113.5,439.8,0.1,579.8,0s253.1,112.8,253.5,253.1c0.4,139.9-113.4,253.8-253.5,253.6
	C440,506.8,326.6,393.4,326.6,253.6C326.6,253.5,326.6,253.5,326.6,253.4z"/>
<path class="st1" d="M545.4,348.1v-5.6c0-19.3-0.1-38.8,0-58.1c0.1-10.8,6.7-17.3,17.5-17.4c10.4-0.1,20.8,0,31.2,0
	c12.7,0,18.9,6.2,18.9,18.8c0,19.1,0,38.2,0,57.1v5.2c13.6,0,26.5,0,39.4,0c12.8,0,16-3.2,16-15.7c0-24.9,0-49.8,0-74.7v-6
	c5.4,0,10.2-0.1,15.1,0c4,0.1,7.6-0.5,9.3-4.8c1.7-4.1-0.4-6.8-3.1-9.6c-34.6-34.5-69.1-69-103.6-103.6c-5-5-8.6-5-13.7,0
	c-34.1,34-68.2,68.2-102.3,102.2c-2.8,2.8-4.6,5.7-3,9.7c1.6,3.9,5,4.8,9,4.7c4.5-0.1,9,0,13.9,0v6.4c0,25.3,0,50.7,0,76.1
	c-0.1,1.7,0,3.5,0.2,5.2c0.6,5.6,4.7,9.9,10.2,10C515.2,348.3,530,348.1,545.4,348.1z"/>
<title>icon_linked</title>
<g>
	<path class="st2" d="M24.7,243.1l89.1-89.1c5.7-5.7,14.9-5.7,20.6,0c5.7,5.7,5.7,14.9,0,20.5l-78.9,78.9l78.9,78.9
		c5.7,5.7,5.7,14.9,0,20.5c-5.7,5.7-14.9,5.7-20.6,0l-89.1-89.1c-2.8-2.8-4.3-6.6-4.3-10.3C20.4,249.6,21.8,245.9,24.7,243.1z"/>
</g>
</svg>
